<svg width="1021" height="381" viewBox="0 0 1021 381" fill="none" xmlns="http://www.w3.org/2000/svg">
<path d="M290.595 213.175L289.21 213.75L290.595 213.175ZM660.312 363.877L660.889 365.262L660.312 363.877ZM1019.29 365.35C1020.1 365.192 1020.63 364.405 1020.47 363.592L1017.9 350.339C1017.75 349.525 1016.96 348.994 1016.15 349.151C1015.33 349.309 1014.8 350.096 1014.96 350.909L1017.24 362.69L1005.46 364.973C1004.65 365.13 1004.12 365.917 1004.27 366.73C1004.43 367.544 1005.22 368.075 1006.03 367.918L1019.29 365.35ZM-0.145693 3.49291C3.08774 3.80846 6.50674 4.21961 10.0937 4.73204L10.5179 1.76219C6.88946 1.24383 3.42609 0.827226 0.145693 0.507092L-0.145693 3.49291ZM30.5835 8.42827C36.9998 9.80947 43.7441 11.4593 50.7495 13.3984L51.5499 10.5072C44.4892 8.55271 37.6886 6.88901 31.2148 5.49545L30.5835 8.42827ZM70.6469 19.4851C77.0337 21.6241 83.5676 23.9908 90.206 26.5983L91.3028 23.806C84.6159 21.1794 78.034 18.7953 71.5996 16.6404L70.6469 19.4851ZM109.38 34.6967C115.585 37.505 121.844 40.5242 128.123 43.7641L129.498 41.098C123.172 37.834 116.868 34.7925 110.617 31.9636L109.38 34.6967ZM146.363 53.788C152.267 57.2388 158.162 60.8925 164.022 64.7572L165.674 62.2529C159.767 58.3575 153.826 54.6752 147.876 51.1979L146.363 53.788ZM181.062 76.6923C186.57 80.7865 192.022 85.0807 197.393 89.5819L199.32 87.2825C193.903 82.7428 188.405 78.4126 182.852 74.2846L181.062 76.6923ZM212.914 103.4C217.904 108.121 222.8 113.039 227.58 118.161L229.774 116.115C224.95 110.946 220.01 105.983 214.976 101.22L212.914 103.4ZM241.26 133.786C245.613 139.091 249.842 144.591 253.929 150.289L256.367 148.541C252.242 142.788 247.973 137.238 243.579 131.883L241.26 133.786ZM265.468 167.547C269.087 173.364 272.56 179.369 275.872 185.565L278.518 184.151C275.175 177.896 271.669 171.835 268.015 165.962L265.468 167.547ZM285.055 204.184C286.481 207.328 287.867 210.516 289.21 213.75L291.98 212.6C290.625 209.336 289.227 206.118 287.788 202.945L285.055 204.184ZM289.21 213.75C290.645 217.208 292.13 220.599 293.661 223.925L296.386 222.67C294.871 219.379 293.402 216.023 291.98 212.6L289.21 213.75ZM303.64 243.538C307.294 250.061 311.144 256.298 315.171 262.258L317.657 260.579C313.676 254.688 309.871 248.522 306.257 242.071L303.64 243.538ZM328.318 280.004C333.022 285.802 337.909 291.294 342.957 296.493L345.11 294.403C340.123 289.268 335.295 283.843 330.648 278.114L328.318 280.004ZM358.982 311.588C364.618 316.441 370.405 320.985 376.32 325.235L378.07 322.799C372.226 318.599 366.507 314.109 360.94 309.315L358.982 311.588ZM394.747 337.318C401.105 341.113 407.569 344.611 414.112 347.829L415.436 345.138C408.964 341.954 402.571 338.494 396.285 334.742L394.747 337.318ZM434.246 356.784C441.113 359.531 448.033 362.001 454.973 364.212L455.884 361.354C449.009 359.163 442.158 356.718 435.36 353.998L434.246 356.784ZM476.178 370.18C483.378 371.948 490.567 373.461 497.71 374.739L498.238 371.785C491.155 370.518 484.029 369.019 476.893 367.266L476.178 370.18ZM519.488 377.951C526.905 378.818 534.231 379.447 541.425 379.863L541.599 376.868C534.461 376.456 527.193 375.832 519.837 374.972L519.488 377.951ZM563.395 380.5C570.959 380.501 578.314 380.276 585.404 379.859L585.228 376.864C578.196 377.278 570.9 377.501 563.395 377.5L563.395 380.5ZM607.346 377.88C615.08 376.93 622.354 375.755 629.075 374.411L628.487 371.469C621.843 372.797 614.643 373.961 606.98 374.903L607.346 377.88ZM650.551 368.998C654.346 367.8 657.804 366.548 660.889 365.262L659.735 362.493C656.744 363.74 653.371 364.962 649.648 366.137L650.551 368.998ZM660.889 365.262C663.87 364.019 667.059 362.688 670.446 361.291L669.301 358.518C665.909 359.918 662.715 361.25 659.735 362.493L660.889 365.262ZM689.802 353.514C695.903 351.142 702.407 348.699 709.273 346.257L708.268 343.43C701.37 345.884 694.839 348.337 688.715 350.717L689.802 353.514ZM728.984 339.61C735.399 337.57 742.052 335.577 748.916 333.677L748.115 330.786C741.213 332.697 734.523 334.7 728.074 336.751L728.984 339.61ZM769.065 328.543C775.701 327.001 782.493 325.573 789.421 324.294L788.876 321.344C781.901 322.632 775.064 324.07 768.386 325.621L769.065 328.543ZM809.926 321.022C816.709 320.115 823.595 319.369 830.567 318.816L830.33 315.825C823.301 316.383 816.361 317.134 809.528 318.049L809.926 321.022ZM851.308 317.768C858.165 317.624 865.086 317.684 872.056 317.974L872.181 314.976C865.145 314.684 858.162 314.624 851.245 314.769L851.308 317.768ZM892.737 319.519C899.556 320.26 906.408 321.239 913.277 322.481L913.811 319.529C906.869 318.274 899.948 317.285 893.061 316.536L892.737 319.519ZM933.512 326.908C940.139 328.617 946.77 330.589 953.395 332.846L954.362 330.006C947.664 327.725 940.96 325.73 934.261 324.003L933.512 326.908ZM972.716 340.266C978.985 342.954 985.236 345.917 991.461 349.173L992.851 346.515C986.558 343.223 980.237 340.227 973.899 337.509L972.716 340.266ZM1009.43 359.453C1012.35 361.272 1015.26 363.16 1018.16 365.12L1019.84 362.634C1016.91 360.654 1013.96 358.745 1011.01 356.907L1009.43 359.453Z" fill="#00337C"/>
</svg>
