<svg width="418" height="1037" viewBox="0 0 418 1037" fill="none" xmlns="http://www.w3.org/2000/svg">
<path d="M296 429.222L294.514 429.017L296 429.222ZM407.089 1036.19C407.747 1036.69 408.688 1036.57 409.192 1035.91L417.392 1025.19C417.895 1024.53 417.769 1023.59 417.111 1023.08C416.453 1022.58 415.512 1022.71 415.008 1023.36L407.72 1032.9L398.187 1025.61C397.529 1025.11 396.587 1025.23 396.084 1025.89C395.581 1026.55 395.707 1027.49 396.365 1027.99L407.089 1036.19ZM-36.964 3.14926C-34.2564 5.42029 -31.488 7.71805 -28.6635 10.0421L-26.7574 7.72556C-29.5754 5.40677 -32.3365 3.11507 -35.036 0.850745L-36.964 3.14926ZM-11.7766 23.7401C-6.27406 28.1509 -0.613116 32.6474 5.17885 37.2271L7.03955 34.8738C1.25077 30.2967 -4.40461 25.8046 -9.90027 21.3993L-11.7766 23.7401ZM22.2281 50.6683C27.8323 55.0795 33.5276 59.561 39.2933 64.1119L41.152 61.757C35.3843 57.2046 29.6872 52.7217 24.0836 48.3109L22.2281 50.6683ZM56.2785 77.5717C61.8763 82.0294 67.5184 86.5483 73.1862 91.1268L75.0714 88.7931C69.3971 84.2094 63.7495 79.6861 58.1473 75.2249L56.2785 77.5717ZM89.9874 104.825C95.5378 109.396 101.095 114.022 106.642 118.703L108.577 116.41C103.02 111.721 97.4531 107.087 91.8946 102.509L89.9874 104.825ZM123.111 132.795C128.557 137.526 133.976 142.308 139.352 147.139L141.358 144.908C135.968 140.064 130.536 135.271 125.078 130.53L123.111 132.795ZM155.322 161.772C160.607 166.714 165.831 171.704 170.978 176.742L173.076 174.598C167.912 169.543 162.671 164.537 157.371 159.581L155.322 161.772ZM186.26 192.088C191.31 197.296 196.262 202.552 201.1 207.853L203.316 205.831C198.456 200.506 193.483 195.228 188.414 190L186.26 192.088ZM215.415 224.083C220.123 229.617 224.692 235.197 229.104 240.822L231.464 238.971C227.027 233.312 222.432 227.701 217.699 222.139L215.415 224.083ZM242.048 258.115C246.273 264.047 250.308 270.025 254.13 276.049L256.663 274.441C252.81 268.37 248.746 262.347 244.491 256.375L242.048 258.115ZM265.154 294.633C268.664 301.002 271.921 307.418 274.902 313.878L277.626 312.621C274.613 306.092 271.324 299.613 267.782 293.185L265.154 294.633ZM283.132 333.777C285.621 340.588 287.784 347.445 289.596 354.346L292.498 353.584C290.661 346.588 288.469 339.642 285.95 332.748L283.132 333.777ZM293.99 375.412C295.082 382.504 295.785 389.64 296.072 396.818L299.069 396.698C298.778 389.404 298.063 382.155 296.955 374.955L293.99 375.412ZM295.671 418.292C295.394 421.857 295.009 425.432 294.514 429.017L297.486 429.427C297.989 425.783 298.38 422.149 298.662 418.524L295.671 418.292ZM294.514 429.017C294.021 432.589 293.544 436.129 293.083 439.635L296.057 440.026C296.518 436.526 296.994 432.993 297.486 429.427L294.514 429.017ZM290.507 460.282C289.667 467.415 288.895 474.405 288.191 481.258L291.175 481.565C291.878 474.727 292.648 467.752 293.487 460.633L290.507 460.282ZM286.228 501.978C285.613 509.09 285.073 516.046 284.607 522.852L287.6 523.058C288.065 516.269 288.603 509.331 289.217 502.236L286.228 501.978ZM283.374 543.868C283.027 551.002 282.765 557.963 282.584 564.759L285.583 564.839C285.764 558.065 286.025 551.126 286.37 544.013L283.374 543.868ZM282.277 585.588C282.26 592.764 282.338 599.746 282.506 606.544L285.505 606.47C285.338 599.699 285.26 592.745 285.277 585.595L282.277 585.588ZM283.336 627.551C283.731 634.739 284.233 641.711 284.833 648.482L287.821 648.217C287.224 641.48 286.725 634.541 286.332 627.387L283.336 627.551ZM287.062 669.328C287.961 676.466 288.975 683.37 290.095 690.063L293.053 689.568C291.941 682.916 290.933 676.051 290.039 668.953L287.062 669.328ZM293.991 710.64C295.48 717.658 297.087 724.438 298.798 731.01L301.701 730.254C300.002 723.726 298.405 716.99 296.926 710.017L293.991 710.64ZM304.572 751.243C306.696 758.08 308.929 764.699 311.252 771.141L314.074 770.124C311.766 763.721 309.547 757.145 307.437 750.353L304.572 751.243ZM318.757 790.688C321.428 797.256 324.179 803.669 326.984 809.975L329.725 808.755C326.931 802.474 324.193 796.092 321.536 789.558L318.757 790.688ZM335.724 829.007C338.707 835.338 341.723 841.612 344.745 847.881L347.447 846.578C344.426 840.31 341.415 834.046 338.438 827.729L335.724 829.007ZM353.796 866.718C356.771 872.963 359.726 879.259 362.636 885.659L365.367 884.417C362.447 877.996 359.484 871.683 356.505 865.428L353.796 866.718ZM371.008 904.743C373.658 911.041 376.248 917.48 378.754 924.104L381.56 923.042C379.039 916.38 376.436 909.908 373.773 903.579L371.008 904.743ZM385.747 943.797C387.876 950.221 389.919 956.838 391.86 963.681L394.746 962.862C392.793 955.976 390.737 949.318 388.595 942.854L385.747 943.797ZM397.098 983.82C398.656 990.39 400.118 997.17 401.473 1004.19L404.418 1003.62C403.055 996.56 401.584 989.739 400.017 983.128L397.098 983.82ZM405.017 1024.73C405.541 1028.16 406.04 1031.65 406.513 1035.2L409.487 1034.8C409.011 1031.24 408.509 1027.73 407.982 1024.27L405.017 1024.73Z" fill="#00337C"/>
</svg>
